<?xml version="1.0" encoding="UTF-8" standalone="no"?>
<!-- Created with Inkscape (http://www.inkscape.org/) -->

<svg
   width="297mm"
   height="210mm"
   viewBox="0 0 1122.5197 793.70081"
   version="1.1"
   id="svg1"
   inkscape:version="1.4.4 (dcaf3e7, 2026-05-05)"
   sodipodi:docname="drawing.svg"
   xmlns:inkscape="http://www.inkscape.org/namespaces/inkscape"
   xmlns:sodipodi="http://sodipodi.sourceforge.net/DTD/sodipodi-0.dtd"
   xmlns:xlink="http://www.w3.org/1999/xlink"
   xmlns="http://www.w3.org/2000/svg"
   xmlns:svg="http://www.w3.org/2000/svg">
  <sodipodi:namedview
     id="namedview1"
     pagecolor="#ffffff"
     bordercolor="#000000"
     borderopacity="0.25"
     inkscape:showpageshadow="2"
     inkscape:pageopacity="0.0"
     inkscape:pagecheckerboard="0"
     inkscape:deskcolor="#d1d1d1"
     inkscape:document-units="mm"
     inkscape:zoom="1.016756"
     inkscape:cx="561.09826"
     inkscape:cy="396.85039"
     inkscape:window-width="1920"
     inkscape:window-height="1009"
     inkscape:window-x="-8"
     inkscape:window-y="-8"
     inkscape:window-maximized="1"
     inkscape:current-layer="layer1" />
  <defs
     id="defs1">
    <pattern
       inkscape:collect="always"
       xlink:href="#Polkadots-large"
       preserveAspectRatio="xMidYMid"
       id="pattern9"
       patternTransform="matrix(0.63251558,0.56511647,-1.2301452,1.3768595,6.1526102,-19.784421)"
       x="0"
       y="0" />
    <pattern
       patternUnits="userSpaceOnUse"
       width="10"
       height="10"
       patternTransform="translate(0,0) scale(10,10)"
       preserveAspectRatio="xMidYMid"
       style="fill:#000000"
       id="Polkadots-large"
       inkscape:stockid="Polka dots, large"
       inkscape:label="Polka dots large"
       inkscape:collect="always"
       inkscape:isstock="true">
      <circle
         style="stroke:none"
         cx="2.567"
         cy="0.810"
         r="0.45"
         id="circle584" />
      <circle
         style="stroke:none"
         cx="3.048"
         cy="2.33"
         r="0.45"
         id="circle586" />
      <circle
         style="stroke:none"
         cx="4.418"
         cy="2.415"
         r="0.45"
         id="circle588" />
      <circle
         style="stroke:none"
         cx="1.844"
         cy="3.029"
         r="0.45"
         id="circle590" />
      <circle
         style="stroke:none"
         cx="6.08"
         cy="1.363"
         r="0.45"
         id="circle592" />
      <circle
         style="stroke:none"
         cx="5.819"
         cy="4.413"
         r="0.45"
         id="circle594" />
      <circle
         style="stroke:none"
         cx="4.305"
         cy="4.048"
         r="0.45"
         id="circle596" />
      <circle
         style="stroke:none"
         cx="5.541"
         cy="3.045"
         r="0.45"
         id="circle598" />
      <circle
         style="stroke:none"
         cx="4.785"
         cy="5.527"
         r="0.45"
         id="circle600" />
      <circle
         style="stroke:none"
         cx="2.667"
         cy="5.184"
         r="0.45"
         id="circle602" />
      <circle
         style="stroke:none"
         cx="7.965"
         cy="1.448"
         r="0.45"
         id="circle604" />
      <circle
         style="stroke:none"
         cx="7.047"
         cy="5.049"
         r="0.45"
         id="circle606" />
      <circle
         style="stroke:none"
         cx="4.340"
         cy="0.895"
         r="0.45"
         id="circle608" />
      <circle
         style="stroke:none"
         cx="7.125"
         cy="0.340"
         r="0.45"
         id="circle610" />
      <circle
         style="stroke:none"
         cx="7.125"
         cy="10.340"
         r="0.45"
         id="circle612" />
      <circle
         style="stroke:none"
         cx="9.550"
         cy="1.049"
         r="0.45"
         id="circle614" />
      <circle
         style="stroke:none"
         cx="7.006"
         cy="2.689"
         r="0.45"
         id="circle616" />
      <circle
         style="stroke:none"
         cx="8.909"
         cy="2.689"
         r="0.45"
         id="circle618" />
      <circle
         style="stroke:none"
         cx="9.315"
         cy="4.407"
         r="0.45"
         id="circle620" />
      <circle
         style="stroke:none"
         cx="7.820"
         cy="3.870"
         r="0.45"
         id="circle622" />
      <circle
         style="stroke:none"
         cx="8.270"
         cy="5.948"
         r="0.45"
         id="circle624" />
      <circle
         style="stroke:none"
         cx="7.973"
         cy="7.428"
         r="0.45"
         id="circle626" />
      <circle
         style="stroke:none"
         cx="9.342"
         cy="8.072"
         r="0.45"
         id="circle628" />
      <circle
         style="stroke:none"
         cx="8.206"
         cy="9.315"
         r="0.45"
         id="circle630" />
      <circle
         style="stroke:none"
         cx="9.682"
         cy="9.475"
         r="0.45"
         id="circle632" />
      <circle
         style="stroke:none"
         cx="-0.318"
         cy="9.475"
         r="0.45"
         id="circle634" />
      <circle
         style="stroke:none"
         cx="9.688"
         cy="6.186"
         r="0.45"
         id="circle636" />
      <circle
         style="stroke:none"
         cx="-0.312"
         cy="6.186"
         r="0.45"
         id="circle638" />
      <circle
         style="stroke:none"
         cx="3.379"
         cy="6.296"
         r="0.45"
         id="circle640" />
      <circle
         style="stroke:none"
         cx="2.871"
         cy="8.204"
         r="0.45"
         id="circle642" />
      <circle
         style="stroke:none"
         cx="4.59"
         cy="8.719"
         r="0.45"
         id="circle644" />
      <circle
         style="stroke:none"
         cx="3.181"
         cy="9.671"
         r="0.45"
         id="circle646" />
      <circle
         style="stroke:none"
         cx="3.181"
         cy="-0.329"
         r="0.45"
         id="circle648" />
      <circle
         style="stroke:none"
         cx="5.734"
         cy="7.315"
         r="0.45"
         id="circle650" />
      <circle
         style="stroke:none"
         cx="6.707"
         cy="6.513"
         r="0.45"
         id="circle652" />
      <circle
         style="stroke:none"
         cx="5.730"
         cy="9.670"
         r="0.45"
         id="circle654" />
      <circle
         style="stroke:none"
         cx="5.730"
         cy="-0.330"
         r="0.45"
         id="circle656" />
      <circle
         style="stroke:none"
         cx="6.535"
         cy="8.373"
         r="0.45"
         id="circle658" />
      <circle
         style="stroke:none"
         cx="4.37"
         cy="7.154"
         r="0.45"
         id="circle660" />
      <circle
         style="stroke:none"
         cx="0.622"
         cy="7.25"
         r="0.45"
         id="circle662" />
      <circle
         style="stroke:none"
         cx="0.831"
         cy="5.679"
         r="0.45"
         id="circle664" />
      <circle
         style="stroke:none"
         cx="1.257"
         cy="8.519"
         r="0.45"
         id="circle666" />
      <circle
         style="stroke:none"
         cx="1.989"
         cy="6.877"
         r="0.45"
         id="circle668" />
      <circle
         style="stroke:none"
         cx="0.374"
         cy="3.181"
         r="0.45"
         id="circle670" />
      <circle
         style="stroke:none"
         cx="10.374"
         cy="3.181"
         r="0.45"
         id="circle672" />
      <circle
         style="stroke:none"
         cx="1.166"
         cy="1.664"
         r="0.45"
         id="circle674" />
      <circle
         style="stroke:none"
         cx="1.151"
         cy="0.093"
         r="0.45"
         id="circle676" />
      <circle
         style="stroke:none"
         cx="1.151"
         cy="10.093"
         r="0.45"
         id="circle678" />
      <circle
         style="stroke:none"
         cx="1.302"
         cy="4.451"
         r="0.45"
         id="circle680" />
      <circle
         style="stroke:none"
         cx="3.047"
         cy="3.763"
         r="0.45"
         id="circle682" />
    </pattern>
    <radialGradient
       inkscape:collect="always"
       xlink:href="#linearGradient4"
       id="radialGradient5"
       cx="31.432804"
       cy="30.404446"
       fx="31.432804"
       fy="30.404446"
       r="33.101681"
       gradientTransform="matrix(1,0,0,1.0058451,0,-0.17771651)"
       gradientUnits="userSpaceOnUse" />
    <linearGradient
       id="linearGradient4">
      <stop
         style="stop-color:#f69500;stop-opacity:1;"
         offset="0"
         id="stop6" />
      <stop
         style="stop-color:#a54300;stop-opacity:1;"
         offset="1"
         id="stop7" />
    </linearGradient>
    <pattern
       inkscape:collect="always"
       xlink:href="#pattern187"
       preserveAspectRatio="xMidYMid"
       id="pattern188"
       patternTransform="matrix(6.3209858,1.016145,-0.83562074,5.1980247,15.317609,-47.229131)"
       x="0"
       y="0" />
    <pattern
       patternUnits="userSpaceOnUse"
       width="10"
       height="10"
       patternTransform="translate(0,0) scale(10,10)"
       preserveAspectRatio="xMidYMid"
       style="fill:#ed9000"
       id="pattern187"
       inkscape:stockid="Polka dots, large"
       inkscape:label="Polka dots large"
       inkscape:collect="always"
       inkscape:isstock="true">
      <circle
         style="stroke:none"
         cx="2.567"
         cy="0.810"
         r="0.45"
         id="circle138" />
      <circle
         style="stroke:none"
         cx="3.048"
         cy="2.33"
         r="0.45"
         id="circle139" />
      <circle
         style="stroke:none"
         cx="4.418"
         cy="2.415"
         r="0.45"
         id="circle140" />
      <circle
         style="stroke:none"
         cx="1.844"
         cy="3.029"
         r="0.45"
         id="circle141" />
      <circle
         style="stroke:none"
         cx="6.08"
         cy="1.363"
         r="0.45"
         id="circle142" />
      <circle
         style="stroke:none"
         cx="5.819"
         cy="4.413"
         r="0.45"
         id="circle143" />
      <circle
         style="stroke:none"
         cx="4.305"
         cy="4.048"
         r="0.45"
         id="circle144" />
      <circle
         style="stroke:none"
         cx="5.541"
         cy="3.045"
         r="0.45"
         id="circle145" />
      <circle
         style="stroke:none"
         cx="4.785"
         cy="5.527"
         r="0.45"
         id="circle146" />
      <circle
         style="stroke:none"
         cx="2.667"
         cy="5.184"
         r="0.45"
         id="circle147" />
      <circle
         style="stroke:none"
         cx="7.965"
         cy="1.448"
         r="0.45"
         id="circle148" />
      <circle
         style="stroke:none"
         cx="7.047"
         cy="5.049"
         r="0.45"
         id="circle149" />
      <circle
         style="stroke:none"
         cx="4.340"
         cy="0.895"
         r="0.45"
         id="circle150" />
      <circle
         style="stroke:none"
         cx="7.125"
         cy="0.340"
         r="0.45"
         id="circle151" />
      <circle
         style="stroke:none"
         cx="7.125"
         cy="10.340"
         r="0.45"
         id="circle152" />
      <circle
         style="stroke:none"
         cx="9.550"
         cy="1.049"
         r="0.45"
         id="circle153" />
      <circle
         style="stroke:none"
         cx="7.006"
         cy="2.689"
         r="0.45"
         id="circle154" />
      <circle
         style="stroke:none"
         cx="8.909"
         cy="2.689"
         r="0.45"
         id="circle155" />
      <circle
         style="stroke:none"
         cx="9.315"
         cy="4.407"
         r="0.45"
         id="circle156" />
      <circle
         style="stroke:none"
         cx="7.820"
         cy="3.870"
         r="0.45"
         id="circle157" />
      <circle
         style="stroke:none"
         cx="8.270"
         cy="5.948"
         r="0.45"
         id="circle158" />
      <circle
         style="stroke:none"
         cx="7.973"
         cy="7.428"
         r="0.45"
         id="circle159" />
      <circle
         style="stroke:none"
         cx="9.342"
         cy="8.072"
         r="0.45"
         id="circle160" />
      <circle
         style="stroke:none"
         cx="8.206"
         cy="9.315"
         r="0.45"
         id="circle161" />
      <circle
         style="stroke:none"
         cx="9.682"
         cy="9.475"
         r="0.45"
         id="circle162" />
      <circle
         style="stroke:none"
         cx="-0.318"
         cy="9.475"
         r="0.45"
         id="circle163" />
      <circle
         style="stroke:none"
         cx="9.688"
         cy="6.186"
         r="0.45"
         id="circle164" />
      <circle
         style="stroke:none"
         cx="-0.312"
         cy="6.186"
         r="0.45"
         id="circle165" />
      <circle
         style="stroke:none"
         cx="3.379"
         cy="6.296"
         r="0.45"
         id="circle166" />
      <circle
         style="stroke:none"
         cx="2.871"
         cy="8.204"
         r="0.45"
         id="circle167" />
      <circle
         style="stroke:none"
         cx="4.59"
         cy="8.719"
         r="0.45"
         id="circle168" />
      <circle
         style="stroke:none"
         cx="3.181"
         cy="9.671"
         r="0.45"
         id="circle169" />
      <circle
         style="stroke:none"
         cx="3.181"
         cy="-0.329"
         r="0.45"
         id="circle170" />
      <circle
         style="stroke:none"
         cx="5.734"
         cy="7.315"
         r="0.45"
         id="circle171" />
      <circle
         style="stroke:none"
         cx="6.707"
         cy="6.513"
         r="0.45"
         id="circle172" />
      <circle
         style="stroke:none"
         cx="5.730"
         cy="9.670"
         r="0.45"
         id="circle173" />
      <circle
         style="stroke:none"
         cx="5.730"
         cy="-0.330"
         r="0.45"
         id="circle174" />
      <circle
         style="stroke:none"
         cx="6.535"
         cy="8.373"
         r="0.45"
         id="circle175" />
      <circle
         style="stroke:none"
         cx="4.37"
         cy="7.154"
         r="0.45"
         id="circle176" />
      <circle
         style="stroke:none"
         cx="0.622"
         cy="7.25"
         r="0.45"
         id="circle177" />
      <circle
         style="stroke:none"
         cx="0.831"
         cy="5.679"
         r="0.45"
         id="circle178" />
      <circle
         style="stroke:none"
         cx="1.257"
         cy="8.519"
         r="0.45"
         id="circle179" />
      <circle
         style="stroke:none"
         cx="1.989"
         cy="6.877"
         r="0.45"
         id="circle180" />
      <circle
         style="stroke:none"
         cx="0.374"
         cy="3.181"
         r="0.45"
         id="circle181" />
      <circle
         style="stroke:none"
         cx="10.374"
         cy="3.181"
         r="0.45"
         id="circle182" />
      <circle
         style="stroke:none"
         cx="1.166"
         cy="1.664"
         r="0.45"
         id="circle183" />
      <circle
         style="stroke:none"
         cx="1.151"
         cy="0.093"
         r="0.45"
         id="circle184" />
      <circle
         style="stroke:none"
         cx="1.151"
         cy="10.093"
         r="0.45"
         id="circle185" />
      <circle
         style="stroke:none"
         cx="1.302"
         cy="4.451"
         r="0.45"
         id="circle186" />
      <circle
         style="stroke:none"
         cx="3.047"
         cy="3.763"
         r="0.45"
         id="circle187" />
    </pattern>
  </defs>
  <g
     inkscape:label="Layer 1"
     inkscape:groupmode="layer"
     id="layer1">
    <path
       sodipodi:type="star"
       style="fill:#641089;fill-opacity:1;stroke:#641089;stroke-width:1.40463;stroke-dasharray:none;stroke-dashoffset:1.32303;stroke-opacity:1"
       id="path2-2"
       inkscape:flatsided="false"
       sodipodi:sides="12"
       sodipodi:cx="31.282528"
       sodipodi:cy="30.546469"
       sodipodi:r1="33.95887"
       sodipodi:r2="21.688459"
       sodipodi:arg1="0.91266818"
       sodipodi:arg2="1.1227554"
       inkscape:rounded="0"
       inkscape:randomized="0.08"
       d="M 54.138939,56.506084 42.489671,49.943553 36.140852,62.398558 27.722402,50.352394 19.295378,63.69961 18.053749,48.085513 4.2538301,51.116066 9.4623317,39.833512 -1.6688769,37.013628 12.085087,28.512538 1.287574,17.935995 l 11.15756,2.764536 0.124213,-14.6832907 11.649268,6.5625307 0.814741,-15.4704901 8.226197,12.5537835 8.421431,-8.3831803 1.241717,10.7822919 14.092743,-1.124301 -4.915589,8.357 12.434633,8.158751 -10.204114,4.650909 8.93715,12.056401 -14.736295,0.118027 z"
       inkscape:transform-center-x="-1.5321485"
       inkscape:transform-center-y="-0.41226414"
       transform="matrix(15.293605,0,0,9.4927018,95.845955,114.46023)" />
    <path
       sodipodi:type="star"
       style="fill:url(#pattern9);stroke:none;stroke-width:1.40463;stroke-dasharray:none;stroke-dashoffset:1.32303"
       id="path2-2-6"
       inkscape:flatsided="false"
       sodipodi:sides="12"
       sodipodi:cx="31.282528"
       sodipodi:cy="30.546469"
       sodipodi:r1="33.95887"
       sodipodi:r2="21.688459"
       sodipodi:arg1="0.91266818"
       sodipodi:arg2="1.1227554"
       inkscape:rounded="0"
       inkscape:randomized="0.08"
       d="M 54.138939,56.506084 42.489671,49.943553 36.140852,62.398558 27.722402,50.352394 19.295378,63.69961 18.053749,48.085513 4.2538301,51.116066 9.4623317,39.833512 -1.6688769,37.013628 12.085087,28.512538 1.287574,17.935995 l 11.15756,2.764536 0.124213,-14.6832907 11.649268,6.5625307 0.814741,-15.4704901 8.226197,12.5537835 8.421431,-8.3831803 1.241717,10.7822919 14.092743,-1.124301 -4.915589,8.357 12.434633,8.158751 -10.204114,4.650909 8.93715,12.056401 -14.736295,0.118027 z"
       inkscape:transform-center-x="-1.5321504"
       inkscape:transform-center-y="-0.41226167"
       transform="matrix(15.293605,0,0,9.4927018,126.57772,120.4922)" />
    <path
       sodipodi:type="star"
       style="fill:url(#radialGradient5);stroke:#000000;stroke-width:1.40463;stroke-dasharray:none;stroke-dashoffset:1.32303;stroke-opacity:1"
       id="path2"
       inkscape:flatsided="false"
       sodipodi:sides="12"
       sodipodi:cx="31.282528"
       sodipodi:cy="30.546469"
       sodipodi:r1="33.95887"
       sodipodi:r2="21.688459"
       sodipodi:arg1="0.91266818"
       sodipodi:arg2="1.1227554"
       inkscape:rounded="0"
       inkscape:randomized="0.08"
       d="M 54.138939,56.506084 42.489671,49.943553 36.140852,62.398558 27.722402,50.352394 19.295378,63.69961 18.053749,48.085513 4.2538301,51.116066 9.4623317,39.833512 -1.6688769,37.013628 12.085087,28.512538 1.287574,17.935995 l 11.15756,2.764536 0.124213,-14.6832907 11.649268,6.5625307 0.814741,-15.4704901 8.226197,12.5537835 8.421431,-8.3831803 1.241717,10.7822919 14.092743,-1.124301 -4.915589,8.357 12.434633,8.158751 -10.204114,4.650909 8.93715,12.056401 -14.736295,0.118027 z"
       inkscape:transform-center-x="-1.5321489"
       inkscape:transform-center-y="-0.41226359"
       transform="matrix(15.293605,0,0,9.4927018,68.589588,81.542607)" />
    <path
       sodipodi:type="star"
       style="fill:url(#pattern188);stroke:none;stroke-width:1.40463;stroke-dasharray:none;stroke-dashoffset:1.32303;stroke-opacity:1"
       id="path2-3"
       inkscape:flatsided="false"
       sodipodi:sides="12"
       sodipodi:cx="31.282528"
       sodipodi:cy="30.546469"
       sodipodi:r1="33.95887"
       sodipodi:r2="21.688459"
       sodipodi:arg1="0.91266818"
       sodipodi:arg2="1.1227554"
       inkscape:rounded="0"
       inkscape:randomized="0.08"
       d="M 54.138939,56.506084 42.489671,49.943553 36.140852,62.398558 27.722402,50.352394 19.295378,63.69961 18.053749,48.085513 4.2538301,51.116066 9.4623317,39.833512 -1.6688769,37.013628 12.085087,28.512538 1.287574,17.935995 l 11.15756,2.764536 0.124213,-14.6832907 11.649268,6.5625307 0.814741,-15.4704901 8.226197,12.5537835 8.421431,-8.3831803 1.241717,10.7822919 14.092743,-1.124301 -4.915589,8.357 12.434633,8.158751 -10.204114,4.650909 8.93715,12.056401 -14.736295,0.118027 z"
       inkscape:transform-center-x="-1.3764987"
       inkscape:transform-center-y="-0.35858194"
       transform="matrix(13.739996,0,0,8.2567441,124.62224,121.08891)" />
  </g>
</svg>
